IKResults
version=1
nRows=11
nColumns=26
inDegrees=yes

Units are S.I. units (second, meters, Newtons, ...)
If the header above contains a line with 'inDegrees', this indicates whether rotational values are in degrees (yes) or radians (no).

endheader
time	pelvis_tilt	pelvis_list	pelvis_rotation	pelvis_tx	pelvis_ty	pelvis_tz	hip_flexion_r	hip_adduction_r	hip_rotation_r	knee_angle_r	knee_angle_r_beta	ankle_angle_r	subtalar_angle_r	mtp_angle_r	hip_flexion_l	hip_adduction_l	hip_rotation_l	knee_angle_l	knee_angle_l_beta	ankle_angle_l	subtalar_angle_l	mtp_angle_l	lumbar_extension	lumbar_bending	lumbar_rotation
      0.00500000	      8.08010304	      0.83857566	      9.30821889	     -0.07005249	      0.96729259	     -0.57512467	    -12.60077582	     -4.34344712	    -13.72484449	     18.29213319	      0.31925795	     -6.15213787	      0.00000000	      0.00000000	     -9.84681250	    -10.15682434	     -7.37599277	     18.91143239	      0.33006676	    -17.19342940	      0.00000000	      0.00000000	    -14.56045015	      0.13904993	     -3.81441527
      0.01000000	      7.88514594	      0.82248240	      9.16080387	     -0.06899830	      0.97323763	     -0.57501816	    -13.01826954	     -4.24689943	    -13.41901932	     16.60275209	      0.28977269	     -8.64093137	      0.00000000	      0.00000000	    -10.33326083	    -10.04567696	     -7.63439184	     17.15998261	      0.29949820	    -19.68330560	      0.00000000	      0.00000000	    -14.07350482	      0.09407309	     -3.77547351
      0.01500000	      7.67153114	      0.80034349	      9.03505830	     -0.06805972	      0.97897057	     -0.57493906	    -13.38236339	     -4.15315923	    -13.09881586	     14.97733435	      0.26140380	    -11.00582953	      0.00000000	      0.00000000	    -10.73389292	     -9.94294790	     -7.85128375	     15.52305407	      0.27092840	    -22.02503199	      0.00000000	      0.00000000	    -13.57915211	      0.05243125	     -3.71741024
      0.02000000	      7.42753036	      0.77057159	      8.92184059	     -0.06722222	      0.98456454	     -0.57487142	    -13.67890732	     -4.06450733	    -12.76479131	     13.42602919	      0.23432841	    -13.28845314	      0.00000000	      0.00000000	    -11.04393466	     -9.84983664	     -8.04037247	     13.99702249	      0.24429413	    -24.23980240	      0.00000000	      0.00000000	    -13.06364265	      0.01932995	     -3.67016070
      0.02500000	      7.16812550	      0.74036578	      8.82412369	     -0.06648571	      0.98997930	     -0.57481438	    -13.92201611	     -3.98414216	    -12.42552274	     11.95226543	      0.20860638	    -15.45401314	      0.00000000	      0.00000000	    -11.27922229	     -9.76061852	     -8.19781610	     12.57716165	      0.21951288	    -26.30981088	      0.00000000	      0.00000000	    -12.54637104	     -0.01433272	     -3.62362083
      0.03000000	      6.89132750	      0.71604603	      8.73902080	     -0.06584984	      0.99522290	     -0.57475983	    -14.10043154	     -3.91875196	    -12.08493517	     10.57745654	      0.18461144	    -17.48587601	      0.00000000	      0.00000000	    -11.44116785	     -9.66719312	     -8.31553543	     11.26060879	      0.19653470	    -28.24042840	      0.00000000	      0.00000000	    -12.02908755	     -0.05441627	     -3.58477040
      0.03500000	      6.60377134	      0.70005656	      8.66320490	     -0.06531307	      1.00028265	     -0.57470287	    -14.21316080	     -3.87340571	    -11.75960420	      9.31900580	      0.16264733	    -19.37412439	      0.00000000	      0.00000000	    -11.53793366	     -9.56829943	     -8.40485512	     10.04803139	      0.17537123	    -30.01476827	      0.00000000	      0.00000000	    -11.52042892	     -0.10293791	     -3.55769082
      0.04000000	      6.31178813	      0.69121075	      8.60127579	     -0.06486114	      1.00516227	     -0.57463788	    -14.28205719	     -3.83912554	    -11.45045574	      8.15166447	      0.14227338	    -21.11683774	      0.00000000	      0.00000000	    -11.57591631	     -9.46925057	     -8.46672342	      8.94160787	      0.15606050	    -31.63509020	      0.00000000	      0.00000000	    -11.02820717	     -0.15767858	     -3.54563983
      0.04500000	      6.01884721	      0.69148647	      8.54971259	     -0.06448524	      1.00986065	     -0.57455951	    -14.30593504	     -3.81918010	    -11.16792320	      7.08705493	      0.12369244	    -22.71434660	      0.00000000	      0.00000000	    -11.56031564	     -9.36789120	     -8.51120133	      7.94279612	      0.13862794	    -33.09858098	      0.00000000	      0.00000000	    -10.55622827	     -0.22066602	     -3.54765455
      0.05000000	      5.72687799	      0.70241388	      8.50731186	     -0.06418036	      1.01437403	     -0.57446972	    -14.28182903	     -3.81671543	    -10.92219779	      6.13762942	      0.10712184	    -24.15588731	      0.00000000	      0.00000000	    -11.49570602	     -9.26249690	     -8.54085938	      7.05090079	      0.12306143	    -34.40884624	      0.00000000	      0.00000000	    -10.10749619	     -0.29391852	     -3.55779449
      0.05500000	      5.44080183	      0.72058147	      8.47197004	     -0.06393479	      1.01870325	     -0.57436743	    -14.22030663	     -3.82614545	    -10.71268642	      5.29559466	      0.09242556	    -25.44419186	      0.00000000	      0.00000000	    -11.38815256	     -9.15667138	     -8.56809455	      6.26786246	      0.10939484	    -35.55084968	      0.00000000	      0.00000000	     -9.68499139	     -0.37319467	     -3.57901311
